PathFileType        4      (X/Y/Z)      C:\Users\pc\Desktop\IMUTRC\Sujet_08\Sujet_08_velo_60.trc         
DataRate	CameraRate	NumFrames	NumMarkers	Units	OrigDataRate	OrigDataStartFrame	OrigNumFrames
60.0	60.0	4	64	mm	60.0	234	934
Frame#	Time	pHipOrigin			pRightASI			pLeftASI			pRightCSI			pLeftCSI			pRightIschialTub			pLeftIschialTub			pSacrum			pL5SpinalProcess			pL3SpinalProcess			pT12SpinalProcess			pIJ			pT4SpinalProcess			pT8SpinalProcess			pPX			pC7SpinalProcess			pTopOfHead			pRightAuricularis			pLeftAuricularis			pBackOfHead			pRightAcromion			pLeftAcromion			pRightArmLatEpicondyle			pRightArmMedEpicondyle			pLeftArmLatEpicondyle			pLeftArmMedEpicondyle			pRightUlnarStyloid			pRightRadialStyloid			pRightOlecranon			pLeftUlnarStyloid			pLeftRadialStyloid			pLeftOlecranon			pRightTopOfHand			pRightPinky			pRightBallHand			pLeftTopOfHand			pLeftPinky			pLeftBallHand			pRightGreaterTrochanter			pRightKneeLatEpicondyle			pRightKneeMedEpicondyle			pRightPatella			pLeftGreaterTrochanter			pLeftKneeLatEpicondyle			pLeftKneeMedEpicondyle			pLeftPatella			pRightTibialTub			pRightLatMalleolus			pRightMedMalleolus			pLeftTibialTub			pLeftLatMalleolus			pLeftMedMalleolus			pRightHeelFoot			pRightFirstMetatarsal			pRightFifthMetatarsal			pRightPivotFoot			pRightHeelCenter			pRightToe			pLeftHeelFoot			pLeftFirstMetatarsal			pLeftFifthMetatarsal			pLeftPivotFoot			pLeftHeelCenter			pLeftToe			
		X1	Y1	Z1	X2	Y2	Z2	X3	Y3	Z3	X4	Y4	Z4	X5	Y5	Z5	X6	Y6	Z6	X7	Y7	Z7	X8	Y8	Z8	X9	Y9	Z9	X10	Y10	Z10	X11	Y11	Z11	X12	Y12	Z12	X13	Y13	Z13	X14	Y14	Z14	X15	Y15	Z15	X16	Y16	Z16	X17	Y17	Z17	X18	Y18	Z18	X19	Y19	Z19	X20	Y20	Z20	X21	Y21	Z21	X22	Y22	Z22	X23	Y23	Z23	X24	Y24	Z24	X25	Y25	Z25	X26	Y26	Z26	X27	Y27	Z27	X28	Y28	Z28	X29	Y29	Z29	X30	Y30	Z30	X31	Y31	Z31	X32	Y32	Z32	X33	Y33	Z33	X34	Y34	Z34	X35	Y35	Z35	X36	Y36	Z36	X37	Y37	Z37	X38	Y38	Z38	X39	Y39	Z39	X40	Y40	Z40	X41	Y41	Z41	X42	Y42	Z42	X43	Y43	Z43	X44	Y44	Z44	X45	Y45	Z45	X46	Y46	Z46	X47	Y47	Z47	X48	Y48	Z48	X49	Y49	Z49	X50	Y50	Z50	X51	Y51	Z51	X52	Y52	Z52	X53	Y53	Z53	X54	Y54	Z54	X55	Y55	Z55	X56	Y56	Z56	X57	Y57	Z57	X58	Y58	Z58	X59	Y59	Z59	X60	Y60	Z60	X61	Y61	Z61	X62	Y62	Z62	X63	Y63	Z63	X64	Y64	Z64	
234	3.883	0.0	1249.97582	7.653894434872941E-14	109.91201362269493	1327.21062	114.5420418597025	68.34520330261417	1320.58588	-146.6062381745235	83.30786194359982	1401.69858	93.27976768141431	49.19805819852776	1396.36647	-121.76205607876392	-58.603385404112935	1213.94368	65.3036988414792	-75.76590709932135	1211.19684	-42.07212176219069	-56.046720932185686	1288.59322	8.001266259143016	6.036724089796428	1371.32171	-3.5295658996356614	70.47897163053351	1465.6839	-14.480415054512367	128.87488978114638	1552.61345	-23.708170626260177	371.86492701340177	1602.05665	-63.71868305660943	258.6395656292146	1689.14778	-43.157662625949534	194.92721471511766	1632.43352	-33.55475653593844	288.12252337366147	1520.94395	-51.248823658215414	295.5740843503401	1720.49412	-44.19240075423353	425.1930340854188	1909.05692	-101.89629820384845	446.1779355279992	1814.85631	-36.66920215637455	360.2291393347648	1820.18842	-140.09487231390727	364.48104028548113	1831.82211	-55.34042699560612	333.5681045433598	1664.2646	102.29606049874168	271.9454227701336	1673.15145	-207.0161128276332	472.3252097303689	1417.69491	64.41542701283242	437.91085463681185	1404.28385	14.868254076457333	403.7776597272627	1411.39333	-166.54300771300856	375.3494490981701	1403.31437	-112.32578321755466	563.5914164705878	1183.72839	39.982415144891306	602.4411504763787	1205.05683	13.197974825073434	435.40796966838724	1403.47595	55.11670710202136	503.611240681426	1184.53629	-169.77675621631275	547.8016896595075	1208.12684	-157.06263927619952	366.83624460109894	1398.30542	-147.78973274495993	730.7315768270506	1083.87252	94.22856024017277	640.4239054825589	1101.64622	78.79709911303165	599.5054559507863	1152.22047	37.29108530564251	650.6899866898666	1089.04305	-270.67023870381837	568.5615336036484	1104.23148	-229.20324815457968	539.8427484718649	1154.48258	-177.99054685039687	35.6463873010389	1231.23265	158.87210444544053	327.2835229722251	962.6882	140.72920011102096	330.6611529569912	962.84978	63.88292176193688	355.94774643728283	996.45823	100.99190142368015	-6.2933324557780566	1218.30632	-158.78259003761062	307.99519458610513	976.74558	-176.04881277554477	328.2137020306502	988.05612	-102.75327184168322	341.20839795975587	1017.62509	-148.53496333900432	350.3326738624392	913.40658	107.7131755603479	71.44974896941682	659.56583	167.9744276964971	72.4897317278232	651.3253	108.10755651390717	366.8923607461938	952.34714	-148.10798321842339	278.54757979613277	582.33103	-183.04601057769392	288.53368201692064	579.26103	-123.36787718275205	-12.513341650480061	631.28949	141.6844461257412	88.46789632531508	512.85202	112.40158156791614	89.94778601413508	518.66887	186.82293936433788	103.23383860915494	499.76412	149.62434799821804	13.985082193611039	605.27526	143.07540086526524	155.10759802622164	439.49512	153.19265235077614	226.6327551326291	514.30624	-145.43955877021585	378.6887308433846	473.26515	-128.47228466577184	368.9439914968267	472.78041	-202.5461696511845	394.19291349264734	467.28672	-167.0845486537757	262.9115478194625	506.8736	-150.19950683889937	470.1013404516736	445.15039	-176.9980266489888	
235	3.9	0.0	1249.97582	7.653894434872941E-14	108.73279935840706	1327.04904	115.64668547019414	69.8522716042115	1320.74746	-145.8482834753359	82.50301256138845	1401.537	94.12228681161491	50.41493583569086	1396.36647	-121.21935260948042	-59.314827522051694	1213.94368	64.68603450502873	-75.30736626312083	1211.35842	-42.81163180075441	-56.121671951275125	1288.7548	7.495832476400454	6.139734917915073	1371.32171	-3.183267201702343	70.65693174125984	1465.6839	-13.628672725758959	128.99672563518212	1552.61345	-22.538189408602648	372.16473282624133	1602.37981	-61.6969577737167	258.64917904113815	1689.30936	-41.35117872488339	195.15206950886778	1632.5951	-32.03846503578829	288.50649355606583	1521.26711	-49.70447582199961	295.7147666629298	1720.6557	-42.19874339196576	424.74410666114176	1909.70323	-99.35030426421856	446.10337472228053	1815.50263	-34.38534254511326	360.12652045649867	1820.67316	-137.65188746591426	364.21929790696515	1832.14527	-52.92551006823807	333.54965988273585	1664.2646	104.26166963653954	272.6195853534539	1673.47461	-205.25652360959086	471.9135618407104	1417.69491	65.8194960708704	437.6583337203668	1404.44543	16.300371358965215	403.8714456203468	1411.23175	-165.21388967406003	375.47129306380157	1403.15279	-111.15579041533783	562.5713274430315	1183.40524	41.11511682793036	601.4491195213699	1204.73368	14.171551271380796	435.12739067939475	1403.47595	56.70794962126095	502.8344511082438	1184.05155	-169.0933721709214	547.1559655140278	1207.48052	-156.19206207345155	366.9580885667304	1398.467	-146.61973994274308	729.7956701287325	1083.38778	94.88389779757597	639.4599424481752	1101.32306	79.61155205908908	598.5134249957775	1151.89731	38.26466175194987	649.7821282160184	1088.55831	-270.1740281196286	567.6256269053303	1103.90832	-228.54791059717644	539.0659687467602	1153.83626	-177.30716106852375	35.80550268969307	1232.20212	158.90016078150617	337.41098252420153	975.12979	140.0538651511067	340.6294774241584	975.12979	63.17952699299342	364.8022040954055	1009.70772	100.0921018833865	-7.650496982714721	1216.69053	-158.5296870193906	293.87118899944466	959.13346	-174.10931528207288	315.44685285933065	970.76716	-101.0666889509906	329.3774653348319	998.88192	-147.50371626923317	359.4212060399013	925.68659	107.34687772342177	76.69163077525971	676.53164	169.88313852597688	77.54443022438694	667.96795	110.14733450757124	354.2285305145886	935.21976	-146.07509004523817	270.9099980386914	564.23417	-181.60349772003923	280.41872628576596	561.32575	-122.0095483908172	-7.645826463195455	648.90161	143.8552912835896	92.11853387543658	529.65625	114.02972325648102	93.91666592612424	535.31152	188.5071856134383	106.7253526590265	516.24518	151.22442176615797	18.69347214416393	622.56422	145.2181879505662	158.14979270196372	455.49145	154.5494365124196	218.8079918023904	496.20938	-143.8659885964544	370.83590944059847	455.16829	-126.73958925527867	361.09117009404065	454.52197	-200.81347424069136	386.3400920898612	449.02828	-165.35185324328253	254.92766736408782	488.77674	-148.65398315312603	462.19240290379264	426.89195	-174.9470807650322	
236	3.917	0.0	1249.97582	7.653894434872941E-14	107.55359320571493	1326.72589	116.75134066524508	71.51846514254053	1320.74746	-145.06227070360092	81.6701068431114	1401.37542	95.12392133046967	51.9220041372882	1396.36647	-120.46139791029285	-60.026279488068	1213.94368	64.06836843209646	-74.82076909085463	1211.35842	-43.710257227972306	-56.168556786221394	1288.7548	6.831285041485487	6.270802082099362	1371.16014	-2.9960838924232083	70.86295166101534	1465.6839	-12.936065481814794	129.27769483754528	1552.61345	-21.340138533838395	372.33347147489656	1602.70297	-59.862415800103136	258.81791768979343	1689.47094	-39.5166367512698	195.21778921780867	1632.5951	-30.55023334466734	288.86241551400025	1521.42869	-48.001001012570335	295.69631215422834	1720.97886	-40.23313599064969	424.3232373094122	1910.34955	-96.96343556132042	446.0568719891092	1815.98736	-32.260608170583666	359.89283441404825	1821.31947	-135.3960859272004	364.1727853257163	1832.46843	-50.80077743019028	333.5592732946595	1664.2646	106.06815353760568	273.29375778485166	1673.79777	-203.49693265506676	471.50191568753365	1417.53333	67.22355528083087	437.0875623304583	1404.44543	17.67637249637825	403.86221431019817	1411.23175	-164.23109176568164	375.4340135291831	1403.15279	-110.01386553374596	561.5793045996185	1183.24366	42.088704858797	600.4570984144387	1204.41052	15.145129454169922	434.715744526218	1403.47595	58.11200883122142	502.21678503531155	1183.56682	-168.38192020490507	546.5383011775774	1206.8342	-155.48061995551276	366.9488671046593	1398.467	-145.63694029788292	729.0749949641634	1082.90304	95.24904121758142	638.6831511385112	1100.83832	80.29494595255792	597.549460224912	1151.57416	39.079124546084785	649.0053369063544	1088.07357	-269.4906342261598	566.848837332148	1103.26201	-227.8645265517851	538.4483026738279	1153.35153	-176.5957091025075	36.12375316315651	1233.33317	158.95627692660102	347.4354213999817	988.2177	139.03222975677733	350.17655043782094	988.05612	62.07371911750357	373.0762850632919	1023.7651	98.76183116399906	-8.848547857478973	1215.55947	-158.24871781702743	279.21369329397595	942.81397	-171.93575138085734	301.8282810554128	954.28609	-99.20214247660815	316.8539254659639	981.10822	-146.26644927970653	368.30372177057137	938.7745	106.28795294639642	83.47786041731838	692.85113	171.40787917305235	83.85328415625048	684.12586	111.58790093700446	340.8720947755211	919.06185	-143.83618680037495	261.7280684450343	547.10679	-179.77701467998028	270.7313629093662	544.35995	-120.10811433166879	-1.233963439695053	665.54426	145.64216625903367	97.79088859685505	545.81416	115.35804754764702	99.9353373051493	551.30785	189.73251239752676	112.58488895324231	532.40309	152.4216887412172	24.946219779010153	639.04529	146.97700658994464	163.74720451588848	471.3262	155.37233860540235	208.9615130373365	479.56673	-141.99261087337163	360.83030543881284	437.71775	-124.89426960474333	351.0574981716301	437.07143	-198.80903108990609	376.1753628513439	431.57774	-163.5345916652946	245.21224591514067	471.97251	-146.59342385724594	452.0276736652753	408.95667	-173.12981918704432	
237	3.933	0.0	1249.97582	7.653894434872941E-14	106.34632086887962	1326.72589	118.01510951246843	73.15660234480393	1320.74746	-144.1171425432117	80.8372109729119	1401.21385	96.12555758580622	53.45713051143294	1396.36647	-119.86256844783698	-60.737723342488536	1213.94368	63.45071394372352	-74.49329715532016	1211.52	-44.63694072773764	-56.056324496031706	1288.7548	6.194784094558636	6.401869246283652	1371.16014	-2.808900583144073	71.06896984428907	1465.6839	-12.243448389793096	129.39954053965855	1552.61345	-20.170155579699088	372.6893835847535	1603.02613	-58.15894272715562	258.88364551033004	1689.63252	-38.02839347558955	195.44264401155874	1632.5951	-29.033941844517194	289.27445361702945	1521.59027	-46.61577667660446	295.7339836386994	1721.14044	-38.58577732631524	424.08955300344354	1910.67271	-94.70764387068407	446.0384273284854	1816.31052	-30.294999032785814	359.7152645166926	1821.64263	-133.45853486194994	364.126282592545	1832.63001	-48.67604305566068	333.5969447791304	1664.2646	107.71551220194011	274.1551036774511	1673.95935	-201.86841060120867	470.93114429762517	1417.37175	68.5995564182439	436.70397424982906	1404.44543	18.921306469606996	403.8529928481271	1411.07017	-163.24829212082147	375.6119736399094	1402.99122	-109.16212320499253	560.7744569538888	1182.9205	42.93121414092007	599.6522490322274	1204.08736	15.987648584370493	434.14498298438707	1403.47595	59.48801170511622	501.4400053102069	1183.08208	-167.698534423032	545.9206449527227	1206.18789	-154.76916625301467	366.93964564258835	1398.30542	-144.65414065302275	728.1671480748745	1082.41831	95.7452436901754	637.9063598288473	1100.51516	80.9783398460268	596.7446125791823	1151.251	39.921633828207845	648.415740490529	1087.42726	-268.93831560847093	566.2592293317632	1102.77727	-227.31219982250053	537.671511364164	1152.86679	-175.91231520903855	36.28287839988822	1234.46423	158.98433499914844	357.03861229522096	1001.79034	137.60816155974652	359.2743075503176	1001.79034	60.72460193956221	381.0601753667441	1038.30722	97.21630921470751	-9.728338410702282	1214.59	-157.91163073308763	264.05076380576475	927.46396	-169.68723646055238	287.5451519685023	938.7745	-97.29071290376122	303.60971043252675	964.14241	-144.66403887017447	377.21429383730714	952.50872	105.06991278071689	91.30300584933207	708.5243	172.62359080873549	91.20106372614654	699.47587	112.71944009152708	326.6358470505934	903.87341	-141.26019009645802	251.0017910151613	531.11046	-177.566561457517	259.499649960269	528.52519	-117.82270024203855	6.535075695301323	680.89427	147.17613010466198	105.67215828555935	561.32575	116.25552029442602	108.1348476192395	566.81944	190.68609955291882	120.49421671449406	547.91469	153.1600362512645	32.771365211023834	654.3953	148.19271822562777	171.68458223809188	486.83779	155.9515492941586	197.38349154222834	464.21672	-139.60418769210455	348.6718991418727	420.75194	-122.93632918712935	338.89910172276745	420.42879	-196.85108893581034	364.1760817911354	414.61194	-161.54859317513322	233.50315899233004	456.13776	-144.39219383333548	439.57907670390097	391.18297	-171.3871299993344	
